<svg width="3903" height="3703" viewBox="0 0 3903 3703" fill="none" xmlns="http://www.w3.org/2000/svg">
<g filter="url(#filter0_d_524_1043)">
<path d="M10 1851.5C10 834.468 834.468 10 1851.5 10H3893V3693H1851.5C834.468 3693 10 2868.53 10 1851.5Z" fill="white" shape-rendering="crispEdges"/>
<rect x="160" y="160" width="3383" height="3383" rx="1691.5" fill="#FE5957"/>
<path d="M942.923 947.5C949.323 947.5 954.523 949.633 958.523 953.9C962.523 958.167 964.523 963.5 964.523 969.9V1203.1C964.523 1210.03 962.123 1215.9 957.323 1220.7C952.79 1225.23 947.057 1227.5 940.123 1227.5C936.657 1227.5 933.057 1226.97 929.323 1225.9C925.857 1224.57 923.19 1222.83 921.323 1220.7L764.123 1021.1L774.523 1014.7V1205.1C774.523 1211.5 772.39 1216.83 768.123 1221.1C764.123 1225.37 758.79 1227.5 752.123 1227.5C745.723 1227.5 740.523 1225.37 736.523 1221.1C732.523 1216.83 730.523 1211.5 730.523 1205.1V971.9C730.523 964.967 732.79 959.233 737.323 954.7C742.123 949.9 747.99 947.5 754.923 947.5C758.657 947.5 762.523 948.3 766.523 949.9C770.523 951.233 773.457 953.367 775.323 956.3L927.723 1150.7L920.923 1155.5V969.9C920.923 963.5 922.923 958.167 926.923 953.9C930.923 949.633 936.257 947.5 942.923 947.5ZM1228.26 1120.7C1228.26 1142.57 1223.33 1161.9 1213.46 1178.7C1203.86 1195.23 1190.8 1208.17 1174.26 1217.5C1158 1226.83 1139.73 1231.5 1119.46 1231.5C1099.2 1231.5 1080.8 1226.83 1064.26 1217.5C1048 1208.17 1034.93 1195.23 1025.06 1178.7C1015.46 1161.9 1010.66 1142.57 1010.66 1120.7C1010.66 1098.83 1015.46 1079.63 1025.06 1063.1C1034.93 1046.3 1048 1033.23 1064.26 1023.9C1080.8 1014.3 1099.2 1009.5 1119.46 1009.5C1139.73 1009.5 1158 1014.3 1174.26 1023.9C1190.8 1033.23 1203.86 1046.3 1213.46 1063.1C1223.33 1079.63 1228.26 1098.83 1228.26 1120.7ZM1180.26 1120.7C1180.26 1107.1 1177.46 1095.37 1171.86 1085.5C1166.53 1075.37 1159.2 1067.5 1149.86 1061.9C1140.8 1056.3 1130.66 1053.5 1119.46 1053.5C1108.26 1053.5 1098 1056.3 1088.66 1061.9C1079.6 1067.5 1072.26 1075.37 1066.66 1085.5C1061.33 1095.37 1058.66 1107.1 1058.66 1120.7C1058.66 1134.03 1061.33 1145.77 1066.66 1155.9C1072.26 1165.77 1079.6 1173.5 1088.66 1179.1C1098 1184.7 1108.26 1187.5 1119.46 1187.5C1130.66 1187.5 1140.8 1184.7 1149.86 1179.1C1159.2 1173.5 1166.53 1165.77 1171.86 1155.9C1177.46 1145.77 1180.26 1134.03 1180.26 1120.7ZM1158.26 987.5C1150 987.5 1144 986.033 1140.26 983.1C1136.53 979.9 1134.66 974.7 1134.66 967.5V960.3C1134.66 952.567 1136.66 947.367 1140.66 944.7C1144.93 941.767 1151.06 940.3 1159.06 940.3C1167.86 940.3 1174.13 941.767 1177.86 944.7C1181.86 947.633 1183.86 952.833 1183.86 960.3V967.5C1183.86 975.5 1181.86 980.833 1177.86 983.5C1173.86 986.167 1167.33 987.5 1158.26 987.5ZM1078.66 987.5C1070.4 987.5 1064.4 986.033 1060.66 983.1C1056.93 979.9 1055.06 974.7 1055.06 967.5V960.3C1055.06 952.833 1057.06 947.633 1061.06 944.7C1065.06 941.767 1070.93 940.3 1078.66 940.3C1088 940.3 1094.53 941.767 1098.26 944.7C1102.26 947.367 1104.26 952.567 1104.26 960.3V967.5C1104.26 975.5 1102.26 980.833 1098.26 983.5C1094.26 986.167 1087.73 987.5 1078.66 987.5ZM1445.47 931.5C1452.41 931.5 1458.14 933.767 1462.67 938.3C1467.21 942.833 1469.47 948.7 1469.47 955.9V1203.1C1469.47 1210.03 1467.21 1215.9 1462.67 1220.7C1458.14 1225.23 1452.41 1227.5 1445.47 1227.5C1438.54 1227.5 1432.81 1225.23 1428.27 1220.7C1423.74 1215.9 1421.47 1210.03 1421.47 1203.1V1183.5L1430.27 1187.1C1430.27 1190.57 1428.41 1194.83 1424.67 1199.9C1420.94 1204.7 1415.87 1209.5 1409.47 1214.3C1403.07 1219.1 1395.47 1223.23 1386.67 1226.7C1378.14 1229.9 1368.81 1231.5 1358.67 1231.5C1340.27 1231.5 1323.61 1226.83 1308.67 1217.5C1293.74 1207.9 1281.87 1194.83 1273.07 1178.3C1264.54 1161.5 1260.27 1142.3 1260.27 1120.7C1260.27 1098.83 1264.54 1079.63 1273.07 1063.1C1281.87 1046.3 1293.61 1033.23 1308.27 1023.9C1322.94 1014.3 1339.21 1009.5 1357.07 1009.5C1368.54 1009.5 1379.07 1011.23 1388.67 1014.7C1398.27 1018.17 1406.54 1022.57 1413.47 1027.9C1420.67 1033.23 1426.14 1038.7 1429.87 1044.3C1433.87 1049.63 1435.87 1054.17 1435.87 1057.9L1421.47 1063.1V955.9C1421.47 948.967 1423.74 943.233 1428.27 938.7C1432.81 933.9 1438.54 931.5 1445.47 931.5ZM1364.67 1187.5C1376.41 1187.5 1386.67 1184.57 1395.47 1178.7C1404.27 1172.83 1411.07 1164.83 1415.87 1154.7C1420.94 1144.57 1423.47 1133.23 1423.47 1120.7C1423.47 1107.9 1420.94 1096.43 1415.87 1086.3C1411.07 1076.17 1404.27 1068.17 1395.47 1062.3C1386.67 1056.43 1376.41 1053.5 1364.67 1053.5C1353.21 1053.5 1343.07 1056.43 1334.27 1062.3C1325.47 1068.17 1318.54 1076.17 1313.47 1086.3C1308.67 1096.43 1306.27 1107.9 1306.27 1120.7C1306.27 1133.23 1308.67 1144.57 1313.47 1154.7C1318.54 1164.83 1325.47 1172.83 1334.27 1178.7C1343.07 1184.57 1353.21 1187.5 1364.67 1187.5ZM1686.5 1013.5C1693.43 1013.5 1699.16 1015.9 1703.7 1020.7C1708.23 1025.23 1710.5 1030.97 1710.5 1037.9V1139.5C1710.5 1167.77 1702.63 1190.17 1686.9 1206.7C1671.16 1223.23 1648.5 1231.5 1618.9 1231.5C1589.3 1231.5 1566.63 1223.23 1550.9 1206.7C1535.43 1190.17 1527.7 1167.77 1527.7 1139.5V1037.9C1527.7 1030.97 1529.96 1025.23 1534.5 1020.7C1539.03 1015.9 1544.76 1013.5 1551.7 1013.5C1558.63 1013.5 1564.36 1015.9 1568.9 1020.7C1573.43 1025.23 1575.7 1030.97 1575.7 1037.9V1139.5C1575.7 1155.77 1579.3 1167.9 1586.5 1175.9C1593.7 1183.63 1604.5 1187.5 1618.9 1187.5C1633.56 1187.5 1644.5 1183.63 1651.7 1175.9C1658.9 1167.9 1662.5 1155.77 1662.5 1139.5V1037.9C1662.5 1030.97 1664.76 1025.23 1669.3 1020.7C1673.83 1015.9 1679.56 1013.5 1686.5 1013.5ZM1764.86 1017.5H1859.66C1866.06 1017.5 1871.39 1019.63 1875.66 1023.9C1879.93 1028.17 1882.06 1033.5 1882.06 1039.9C1882.06 1046.03 1879.93 1051.23 1875.66 1055.5C1871.39 1059.5 1866.06 1061.5 1859.66 1061.5H1764.86C1758.46 1061.5 1753.13 1059.37 1748.86 1055.1C1744.59 1050.83 1742.46 1045.5 1742.46 1039.1C1742.46 1032.97 1744.59 1027.9 1748.86 1023.9C1753.13 1019.63 1758.46 1017.5 1764.86 1017.5ZM1807.66 967.5C1814.59 967.5 1820.19 969.9 1824.46 974.7C1828.99 979.233 1831.26 984.967 1831.26 991.9V1169.9C1831.26 1173.63 1831.93 1176.7 1833.26 1179.1C1834.86 1181.5 1836.86 1183.23 1839.26 1184.3C1841.93 1185.37 1844.73 1185.9 1847.66 1185.9C1850.86 1185.9 1853.79 1185.37 1856.46 1184.3C1859.13 1182.97 1862.19 1182.3 1865.66 1182.3C1869.39 1182.3 1872.73 1184.03 1875.66 1187.5C1878.86 1190.97 1880.46 1195.77 1880.46 1201.9C1880.46 1209.37 1876.33 1215.5 1868.06 1220.3C1860.06 1225.1 1851.39 1227.5 1842.06 1227.5C1836.46 1227.5 1830.19 1227.1 1823.26 1226.3C1816.59 1225.23 1810.19 1222.97 1804.06 1219.5C1798.19 1215.77 1793.26 1210.17 1789.26 1202.7C1785.26 1195.23 1783.26 1184.97 1783.26 1171.9V991.9C1783.26 984.967 1785.53 979.233 1790.06 974.7C1794.86 969.9 1800.73 967.5 1807.66 967.5ZM2012.98 1009.5C2024.18 1009.5 2034.45 1011.23 2043.78 1014.7C2053.11 1018.17 2061.11 1022.57 2067.78 1027.9C2074.71 1033.23 2080.05 1038.7 2083.78 1044.3C2087.78 1049.63 2089.78 1054.17 2089.78 1057.9L2079.38 1063.1V1033.9C2079.38 1026.97 2081.65 1021.23 2086.18 1016.7C2090.71 1011.9 2096.45 1009.5 2103.38 1009.5C2110.31 1009.5 2116.05 1011.77 2120.58 1016.3C2125.11 1020.83 2127.38 1026.7 2127.38 1033.9V1211.9C2127.38 1235.1 2122.31 1253.63 2112.18 1267.5C2102.31 1281.63 2089.25 1291.77 2072.98 1297.9C2056.71 1304.3 2039.25 1307.5 2020.58 1307.5C2015.25 1307.5 2008.31 1306.83 1999.78 1305.5C1991.25 1304.17 1983.11 1302.57 1975.38 1300.7C1967.65 1298.83 1961.78 1297.1 1957.78 1295.5C1949.78 1292.03 1944.18 1287.63 1940.98 1282.3C1938.05 1277.23 1937.51 1271.77 1939.38 1265.9C1941.78 1258.17 1945.65 1252.83 1950.98 1249.9C1956.31 1247.23 1961.91 1246.97 1967.78 1249.1C1970.45 1249.9 1974.85 1251.5 1980.98 1253.9C1987.11 1256.3 1993.78 1258.43 2000.98 1260.3C2008.45 1262.43 2014.98 1263.5 2020.58 1263.5C2040.58 1263.5 2055.38 1259.5 2064.98 1251.5C2074.58 1243.5 2079.38 1232.43 2079.38 1218.3V1183.5L2084.18 1187.1C2084.18 1190.57 2082.31 1194.83 2078.58 1199.9C2075.11 1204.7 2070.18 1209.5 2063.78 1214.3C2057.65 1219.1 2050.31 1223.23 2041.78 1226.7C2033.25 1229.9 2024.18 1231.5 2014.58 1231.5C1995.65 1231.5 1978.58 1226.83 1963.38 1217.5C1948.18 1207.9 1936.18 1194.83 1927.38 1178.3C1918.58 1161.5 1914.18 1142.3 1914.18 1120.7C1914.18 1098.83 1918.58 1079.63 1927.38 1063.1C1936.18 1046.3 1948.05 1033.23 1962.98 1023.9C1977.91 1014.3 1994.58 1009.5 2012.98 1009.5ZM2020.58 1053.5C2008.58 1053.5 1998.05 1056.43 1988.98 1062.3C1979.91 1068.17 1972.85 1076.17 1967.78 1086.3C1962.71 1096.43 1960.18 1107.9 1960.18 1120.7C1960.18 1133.23 1962.71 1144.57 1967.78 1154.7C1972.85 1164.83 1979.91 1172.83 1988.98 1178.7C1998.05 1184.57 2008.58 1187.5 2020.58 1187.5C2032.85 1187.5 2043.51 1184.57 2052.58 1178.7C2061.65 1172.83 2068.71 1164.83 2073.78 1154.7C2078.85 1144.57 2081.38 1133.23 2081.38 1120.7C2081.38 1107.9 2078.85 1096.43 2073.78 1086.3C2068.71 1076.17 2061.65 1068.17 2052.58 1062.3C2043.51 1056.43 2032.85 1053.5 2020.58 1053.5ZM2352.5 1009.5C2359.44 1009.5 2365.17 1011.77 2369.7 1016.3C2374.24 1020.83 2376.5 1026.7 2376.5 1033.9V1203.1C2376.5 1210.03 2374.24 1215.9 2369.7 1220.7C2365.17 1225.23 2359.44 1227.5 2352.5 1227.5C2345.57 1227.5 2339.84 1225.23 2335.3 1220.7C2330.77 1215.9 2328.5 1210.03 2328.5 1203.1V1183.5L2337.3 1187.1C2337.3 1190.57 2335.44 1194.83 2331.7 1199.9C2327.97 1204.7 2322.9 1209.5 2316.5 1214.3C2310.1 1219.1 2302.5 1223.23 2293.7 1226.7C2285.17 1229.9 2275.84 1231.5 2265.7 1231.5C2247.3 1231.5 2230.64 1226.83 2215.7 1217.5C2200.77 1207.9 2188.9 1194.83 2180.1 1178.3C2171.57 1161.5 2167.3 1142.3 2167.3 1120.7C2167.3 1098.83 2171.57 1079.63 2180.1 1063.1C2188.9 1046.3 2200.64 1033.23 2215.3 1023.9C2229.97 1014.3 2246.24 1009.5 2264.1 1009.5C2275.57 1009.5 2286.1 1011.23 2295.7 1014.7C2305.3 1018.17 2313.57 1022.57 2320.5 1027.9C2327.7 1033.23 2333.17 1038.7 2336.9 1044.3C2340.9 1049.63 2342.9 1054.17 2342.9 1057.9L2328.5 1063.1V1033.9C2328.5 1026.97 2330.77 1021.23 2335.3 1016.7C2339.84 1011.9 2345.57 1009.5 2352.5 1009.5ZM2271.7 1187.5C2283.44 1187.5 2293.7 1184.57 2302.5 1178.7C2311.3 1172.83 2318.1 1164.83 2322.9 1154.7C2327.97 1144.57 2330.5 1133.23 2330.5 1120.7C2330.5 1107.9 2327.97 1096.43 2322.9 1086.3C2318.1 1076.17 2311.3 1068.17 2302.5 1062.3C2293.7 1056.43 2283.44 1053.5 2271.7 1053.5C2260.24 1053.5 2250.1 1056.43 2241.3 1062.3C2232.5 1068.17 2225.57 1076.17 2220.5 1086.3C2215.7 1096.43 2213.3 1107.9 2213.3 1120.7C2213.3 1133.23 2215.7 1144.57 2220.5 1154.7C2225.57 1164.83 2232.5 1172.83 2241.3 1178.7C2250.1 1184.57 2260.24 1187.5 2271.7 1187.5ZM2274.9 999.5C2266.9 999.5 2259.44 997.5 2252.5 993.5C2245.57 989.5 2239.97 984.167 2235.7 977.5C2231.44 970.833 2229.3 963.633 2229.3 955.9C2229.3 947.633 2231.44 940.167 2235.7 933.5C2239.97 926.833 2245.57 921.5 2252.5 917.5C2259.44 913.5 2266.9 911.5 2274.9 911.5C2282.9 911.5 2290.37 913.5 2297.3 917.5C2304.24 921.5 2309.84 926.833 2314.1 933.5C2318.37 940.167 2320.5 947.633 2320.5 955.9C2320.5 963.633 2318.37 970.833 2314.1 977.5C2309.84 984.167 2304.24 989.5 2297.3 993.5C2290.37 997.5 2282.9 999.5 2274.9 999.5ZM2274.9 971.5C2279.97 971.5 2284.1 970.033 2287.3 967.1C2290.77 964.167 2292.5 960.433 2292.5 955.9C2292.5 950.3 2290.64 946.167 2286.9 943.5C2283.44 940.833 2279.44 939.5 2274.9 939.5C2269.84 939.5 2265.57 940.967 2262.1 943.9C2258.9 946.567 2257.3 950.567 2257.3 955.9C2257.3 960.433 2258.9 964.167 2262.1 967.1C2265.57 970.033 2269.84 971.5 2274.9 971.5ZM2542.88 1009.5C2562.61 1009.5 2577.54 1013.63 2587.68 1021.9C2598.08 1030.17 2605.14 1041.23 2608.88 1055.1C2612.88 1068.7 2614.88 1083.9 2614.88 1100.7V1203.1C2614.88 1210.03 2612.61 1215.9 2608.08 1220.7C2603.54 1225.23 2597.81 1227.5 2590.88 1227.5C2583.94 1227.5 2578.21 1225.23 2573.68 1220.7C2569.14 1215.9 2566.88 1210.03 2566.88 1203.1V1100.7C2566.88 1091.9 2565.68 1084.03 2563.28 1077.1C2561.14 1069.9 2557.14 1064.17 2551.28 1059.9C2545.41 1055.63 2537.01 1053.5 2526.08 1053.5C2515.41 1053.5 2506.34 1055.63 2498.88 1059.9C2491.68 1064.17 2486.08 1069.9 2482.08 1077.1C2478.34 1084.03 2476.48 1091.9 2476.48 1100.7V1203.1C2476.48 1210.03 2474.21 1215.9 2469.68 1220.7C2465.14 1225.23 2459.41 1227.5 2452.48 1227.5C2445.54 1227.5 2439.81 1225.23 2435.28 1220.7C2430.74 1215.9 2428.48 1210.03 2428.48 1203.1V1037.9C2428.48 1030.97 2430.74 1025.23 2435.28 1020.7C2439.81 1015.9 2445.54 1013.5 2452.48 1013.5C2459.41 1013.5 2465.14 1015.9 2469.68 1020.7C2474.21 1025.23 2476.48 1030.97 2476.48 1037.9V1055.1L2470.48 1053.9C2472.88 1049.37 2476.34 1044.57 2480.88 1039.5C2485.41 1034.17 2490.74 1029.23 2496.88 1024.7C2503.01 1020.17 2509.94 1016.57 2517.68 1013.9C2525.41 1010.97 2533.81 1009.5 2542.88 1009.5ZM2755.56 1009.5C2766.76 1009.5 2777.02 1011.23 2786.36 1014.7C2795.69 1018.17 2803.69 1022.57 2810.36 1027.9C2817.29 1033.23 2822.62 1038.7 2826.36 1044.3C2830.36 1049.63 2832.36 1054.17 2832.36 1057.9L2821.96 1063.1V1033.9C2821.96 1026.97 2824.22 1021.23 2828.76 1016.7C2833.29 1011.9 2839.02 1009.5 2845.96 1009.5C2852.89 1009.5 2858.62 1011.77 2863.16 1016.3C2867.69 1020.83 2869.96 1026.7 2869.96 1033.9V1211.9C2869.96 1235.1 2864.89 1253.63 2854.76 1267.5C2844.89 1281.63 2831.82 1291.77 2815.56 1297.9C2799.29 1304.3 2781.82 1307.5 2763.16 1307.5C2757.82 1307.5 2750.89 1306.83 2742.36 1305.5C2733.82 1304.17 2725.69 1302.57 2717.96 1300.7C2710.22 1298.83 2704.36 1297.1 2700.36 1295.5C2692.36 1292.03 2686.76 1287.63 2683.56 1282.3C2680.62 1277.23 2680.09 1271.77 2681.96 1265.9C2684.36 1258.17 2688.22 1252.83 2693.56 1249.9C2698.89 1247.23 2704.49 1246.97 2710.36 1249.1C2713.02 1249.9 2717.42 1251.5 2723.56 1253.9C2729.69 1256.3 2736.36 1258.43 2743.56 1260.3C2751.02 1262.43 2757.56 1263.5 2763.16 1263.5C2783.16 1263.5 2797.96 1259.5 2807.56 1251.5C2817.16 1243.5 2821.96 1232.43 2821.96 1218.3V1183.5L2826.76 1187.1C2826.76 1190.57 2824.89 1194.83 2821.16 1199.9C2817.69 1204.7 2812.76 1209.5 2806.36 1214.3C2800.22 1219.1 2792.89 1223.23 2784.36 1226.7C2775.82 1229.9 2766.76 1231.5 2757.16 1231.5C2738.22 1231.5 2721.16 1226.83 2705.96 1217.5C2690.76 1207.9 2678.76 1194.83 2669.96 1178.3C2661.16 1161.5 2656.76 1142.3 2656.76 1120.7C2656.76 1098.83 2661.16 1079.63 2669.96 1063.1C2678.76 1046.3 2690.62 1033.23 2705.56 1023.9C2720.49 1014.3 2737.16 1009.5 2755.56 1009.5ZM2763.16 1053.5C2751.16 1053.5 2740.62 1056.43 2731.56 1062.3C2722.49 1068.17 2715.42 1076.17 2710.36 1086.3C2705.29 1096.43 2702.76 1107.9 2702.76 1120.7C2702.76 1133.23 2705.29 1144.57 2710.36 1154.7C2715.42 1164.83 2722.49 1172.83 2731.56 1178.7C2740.62 1184.57 2751.16 1187.5 2763.16 1187.5C2775.42 1187.5 2786.09 1184.57 2795.16 1178.7C2804.22 1172.83 2811.29 1164.83 2816.36 1154.7C2821.42 1144.57 2823.96 1133.23 2823.96 1120.7C2823.96 1107.9 2821.42 1096.43 2816.36 1086.3C2811.29 1076.17 2804.22 1068.17 2795.16 1062.3C2786.09 1056.43 2775.42 1053.5 2763.16 1053.5ZM2949.44 1139.1C2940.37 1139.1 2935.44 1134.03 2934.64 1123.9L2923.04 976.7C2922.5 968.433 2924.64 961.5 2929.44 955.9C2934.5 950.3 2941.04 947.5 2949.04 947.5C2957.04 947.5 2963.57 950.3 2968.64 955.9C2973.7 961.5 2975.84 968.433 2975.04 976.7L2963.84 1123.9C2963.04 1134.03 2958.24 1139.1 2949.44 1139.1ZM2946.64 1227.5C2938.9 1227.5 2932.9 1225.5 2928.64 1221.5C2924.64 1217.23 2922.64 1211.23 2922.64 1203.5V1196.7C2922.64 1188.97 2924.64 1183.1 2928.64 1179.1C2932.9 1174.83 2938.9 1172.7 2946.64 1172.7H2951.84C2959.57 1172.7 2965.44 1174.83 2969.44 1179.1C2973.7 1183.1 2975.84 1188.97 2975.84 1196.7V1203.5C2975.84 1211.23 2973.7 1217.23 2969.44 1221.5C2965.44 1225.5 2959.57 1227.5 2951.84 1227.5H2946.64Z" fill="white"/>
<mask id="mask0_524_1043" style="mask-type:alpha" maskUnits="userSpaceOnUse" x="1437" y="2596" width="642" height="631">
<path d="M1585.95 2597.98C1585.71 2597.03 1586.83 2596.35 1587.57 2596.98L1773.72 2756.8C1774.05 2757.08 1774.53 2757.12 1774.9 2756.89L1981.44 2629.94C1982.26 2629.43 1983.25 2630.27 1982.89 2631.17L1891.4 2856.92C1891.24 2857.32 1891.35 2857.78 1891.68 2858.06L2077.86 3017.9C2078.6 3018.53 2078.09 3019.73 2077.13 3019.65L1834.45 2999.33C1834.01 2999.3 1833.61 2999.55 1833.44 2999.95L1741.98 3225.65C1741.61 3226.55 1740.31 3226.46 1740.08 3225.51L1681.55 2987.21C1681.45 2986.8 1681.09 2986.49 1680.66 2986.45L1437.92 2966.13C1436.96 2966.05 1436.66 2964.79 1437.48 2964.28L1644.02 2837.33C1644.39 2837.1 1644.57 2836.66 1644.47 2836.24L1585.95 2597.98Z" fill="black" fill-opacity="0.3"/>
</mask>
<g mask="url(#mask0_524_1043)">
<g filter="url(#filter1_df_524_1043)">
<path d="M1689.32 2616.5H2211.5L2091.7 2834.14C2088.18 2840.53 2081.47 2844.5 2074.18 2844.5H1544.9C1540.9 2844.5 1538.52 2840.02 1540.76 2836.7L1689.32 2616.5Z" fill="black" fill-opacity="0.3" shape-rendering="crispEdges"/>
</g>
</g>
<g filter="url(#filter2_df_524_1043)">
<path d="M1690.39 2616.5L2328.5 2616.5L2203.36 2834.46C2199.79 2840.67 2193.18 2844.5 2186.01 2844.5H1544.94C1540.93 2844.5 1538.55 2840.01 1540.81 2836.69L1690.39 2616.5Z" fill="black" fill-opacity="0.3" shape-rendering="crispEdges"/>
</g>
<mask id="path-8-inside-1_524_1043" fill="white">
<path d="M1677.5 1617.5C1677.5 1606.45 1686.45 1597.5 1697.5 1597.5H2308.5C2319.55 1597.5 2328.5 1606.45 2328.5 1617.5V2622.5H1677.5V1617.5Z"/>
</mask>
<path d="M1677.5 1617.5C1677.5 1606.45 1686.45 1597.5 1697.5 1597.5H2308.5C2319.55 1597.5 2328.5 1606.45 2328.5 1617.5V2622.5H1677.5V1617.5Z" fill="url(#paint0_linear_524_1043)"/>
<path d="M1672.5 1617.5C1672.5 1603.69 1683.69 1592.5 1697.5 1592.5H2308.5C2322.31 1592.5 2333.5 1603.69 2333.5 1617.5H2323.5C2323.5 1609.22 2316.78 1602.5 2308.5 1602.5H1697.5C1689.22 1602.5 1682.5 1609.22 1682.5 1617.5H1672.5ZM2328.5 2622.5H1677.5H2328.5ZM1672.5 2622.5V1617.5C1672.5 1603.69 1683.69 1592.5 1697.5 1592.5V1602.5C1689.22 1602.5 1682.5 1609.22 1682.5 1617.5V2622.5H1672.5ZM2308.5 1592.5C2322.31 1592.5 2333.5 1603.69 2333.5 1617.5V2622.5H2323.5V1617.5C2323.5 1609.22 2316.78 1602.5 2308.5 1602.5V1592.5Z" fill="#00CCEE" mask="url(#path-8-inside-1_524_1043)"/>
<g clip-path="url(#clip0_524_1043)">
<path d="M1832.4 2368.52L1825.14 2368.77L1822.65 2361.94L1820.65 2368.93L1813.39 2369.18L1819.41 2373.24L1817.41 2380.23L1823.13 2375.75L1829.16 2379.82L1826.67 2372.99L1832.4 2368.52Z" fill="white"/>
<path d="M2187.9 2314.08L2180.64 2314.33L2178.15 2307.51L2176.15 2314.49L2168.89 2314.74L2174.91 2318.81L2172.91 2325.79L2178.63 2321.32L2184.66 2325.38L2182.17 2318.55L2187.9 2314.08Z" fill="white"/>
<path d="M1895.39 2202.14L1888.13 2202.39L1885.65 2195.56L1883.65 2202.55L1876.39 2202.8L1882.41 2206.86L1880.41 2213.85L1886.13 2209.38L1892.15 2213.44L1889.67 2206.61L1895.39 2202.14Z" fill="white"/>
<path d="M2157.9 2413.08L2150.64 2413.33L2148.15 2406.51L2146.15 2413.49L2138.89 2413.74L2144.91 2417.81L2142.91 2424.79L2148.63 2420.32L2154.66 2424.38L2152.17 2417.55L2157.9 2413.08Z" fill="white"/>
<path d="M2167.9 2533.08L2160.64 2533.33L2158.15 2526.51L2156.15 2533.49L2148.89 2533.74L2154.91 2537.81L2152.91 2544.79L2158.63 2540.32L2164.66 2544.38L2162.17 2537.55L2167.9 2533.08Z" fill="white"/>
<path d="M1879.24 2333.79L1871.98 2334.04L1869.5 2327.21L1867.49 2334.2L1860.23 2334.45L1866.26 2338.52L1864.25 2345.5L1869.98 2341.03L1876 2345.09L1873.52 2338.26L1879.24 2333.79Z" fill="white"/>
<path d="M1984.9 2455.08L1977.64 2455.33L1975.15 2448.51L1973.15 2455.49L1965.89 2455.74L1971.91 2459.81L1969.91 2466.79L1975.63 2462.32L1981.66 2466.38L1979.17 2459.55L1984.9 2455.08Z" fill="white"/>
<path d="M1850.17 2454.94L1842.91 2455.19L1840.42 2448.36L1838.42 2455.35L1831.16 2455.6L1837.18 2459.66L1835.18 2466.65L1840.9 2462.17L1846.93 2466.24L1844.44 2459.41L1850.17 2454.94Z" fill="white"/>
<path d="M1845.32 2564.78L1838.06 2565.03L1835.57 2558.2L1833.57 2565.19L1826.31 2565.44L1832.33 2569.5L1830.33 2576.49L1836.06 2572.01L1842.08 2576.08L1839.59 2569.25L1845.32 2564.78Z" fill="white"/>
<path d="M2302.9 2288.08L2295.64 2288.33L2293.15 2281.51L2291.15 2288.49L2283.89 2288.74L2289.91 2292.81L2287.91 2299.79L2293.63 2295.32L2299.66 2299.38L2297.17 2292.55L2302.9 2288.08Z" fill="white"/>
<path d="M2147.9 2083.08L2140.64 2083.33L2138.15 2076.51L2136.15 2083.49L2128.89 2083.74L2134.91 2087.81L2132.91 2094.79L2138.63 2090.32L2144.66 2094.38L2142.17 2087.55L2147.9 2083.08Z" fill="white"/>
<path d="M1975.35 2140.76L1968.09 2141.01L1965.61 2134.18L1963.61 2141.17L1956.34 2141.42L1962.37 2145.48L1960.37 2152.47L1966.09 2147.99L1972.11 2152.06L1969.63 2145.23L1975.35 2140.76Z" fill="white"/>
<path d="M2117.9 2192.08L2110.64 2192.33L2108.15 2185.51L2106.15 2192.49L2098.89 2192.74L2104.91 2196.81L2102.91 2203.79L2108.63 2199.32L2114.66 2203.38L2112.17 2196.55L2117.9 2192.08Z" fill="white"/>
<path d="M2274.9 2413.08L2267.64 2413.33L2265.15 2406.51L2263.15 2413.49L2255.89 2413.74L2261.91 2417.81L2259.91 2424.79L2265.63 2420.32L2271.66 2424.38L2269.17 2417.55L2274.9 2413.08Z" fill="white"/>
<path d="M2234.9 2222.08L2227.64 2222.33L2225.15 2215.51L2223.15 2222.49L2215.89 2222.74L2221.91 2226.81L2219.91 2233.79L2225.63 2229.32L2231.66 2233.38L2229.17 2226.55L2234.9 2222.08Z" fill="white"/>
<path d="M1857.43 2257.87L1850.17 2258.12L1847.69 2251.29L1845.69 2258.28L1838.43 2258.53L1844.45 2262.59L1842.45 2269.58L1848.17 2265.1L1854.19 2269.17L1851.71 2262.34L1857.43 2257.87Z" fill="white"/>
<path d="M1845.32 2124.61L1838.06 2124.86L1835.57 2118.03L1833.57 2125.02L1826.31 2125.27L1832.33 2129.33L1830.33 2136.32L1836.06 2131.84L1842.08 2135.91L1839.59 2129.08L1845.32 2124.61Z" fill="white"/>
<path d="M2034.31 2231.21L2027.05 2231.47L2024.57 2224.64L2022.56 2231.62L2015.3 2231.88L2021.33 2235.94L2019.32 2242.92L2025.05 2238.45L2031.07 2242.51L2028.59 2235.69L2034.31 2231.21Z" fill="white"/>
<path d="M2287.9 2560.08L2280.64 2560.33L2278.15 2553.51L2276.15 2560.49L2268.89 2560.74L2274.91 2564.81L2272.91 2571.79L2278.63 2567.32L2284.66 2571.38L2282.17 2564.55L2287.9 2560.08Z" fill="white"/>
<path d="M2075.9 2488.08L2068.64 2488.33L2066.15 2481.51L2064.15 2488.49L2056.89 2488.74L2062.91 2492.81L2060.91 2499.79L2066.63 2495.32L2072.66 2499.38L2070.17 2492.55L2075.9 2488.08Z" fill="white"/>
<path d="M2067.9 2050.08L2060.64 2050.33L2058.15 2043.51L2056.15 2050.49L2048.89 2050.74L2054.91 2054.81L2052.91 2061.79L2058.63 2057.32L2064.66 2061.38L2062.17 2054.55L2067.9 2050.08Z" fill="white"/>
<path d="M1984.9 1998.08L1977.64 1998.33L1975.15 1991.51L1973.15 1998.49L1965.89 1998.74L1971.91 2002.81L1969.91 2009.79L1975.63 2005.32L1981.66 2009.38L1979.17 2002.55L1984.9 1998.08Z" fill="white"/>
<path d="M2133.9 1729.08L2126.64 1729.33L2124.15 1722.51L2122.15 1729.49L2114.89 1729.74L2120.91 1733.81L2118.91 1740.79L2124.63 1736.32L2130.66 1740.38L2128.17 1733.55L2133.9 1729.08Z" fill="white"/>
<path d="M1964.9 1764.08L1957.64 1764.33L1955.15 1757.51L1953.15 1764.49L1945.89 1764.74L1951.91 1768.81L1949.91 1775.79L1955.63 1771.32L1961.66 1775.38L1959.17 1768.55L1964.9 1764.08Z" fill="white"/>
<path d="M1741.9 1665.08L1734.64 1665.33L1732.15 1658.51L1730.15 1665.49L1722.89 1665.74L1728.91 1669.81L1726.91 1676.79L1732.63 1672.32L1738.66 1676.38L1736.17 1669.55L1741.9 1665.08Z" fill="white"/>
<path d="M1741.9 1849.08L1734.64 1849.33L1732.15 1842.51L1730.15 1849.49L1722.89 1849.74L1728.91 1853.81L1726.91 1860.79L1732.63 1856.32L1738.66 1860.38L1736.17 1853.55L1741.9 1849.08Z" fill="white"/>
<path d="M1792.9 1967.08L1785.64 1967.33L1783.15 1960.51L1781.15 1967.49L1773.89 1967.74L1779.91 1971.81L1777.91 1978.79L1783.63 1974.32L1789.66 1978.38L1787.17 1971.55L1792.9 1967.08Z" fill="white"/>
<path d="M1884.9 2018.08L1877.64 2018.33L1875.15 2011.51L1873.15 2018.49L1865.89 2018.74L1871.91 2022.81L1869.91 2029.79L1875.63 2025.32L1881.66 2029.38L1879.17 2022.55L1884.9 2018.08Z" fill="white"/>
<path d="M1855.01 2083.41L1847.75 2083.67L1845.27 2076.84L1843.26 2083.82L1836 2084.08L1842.03 2088.14L1840.02 2095.12L1845.75 2090.65L1851.77 2094.71L1849.29 2087.88L1855.01 2083.41Z" fill="white"/>
<path d="M2297.9 2125.08L2290.64 2125.33L2288.15 2118.51L2286.15 2125.49L2278.89 2125.74L2284.91 2129.81L2282.91 2136.79L2288.63 2132.32L2294.66 2136.38L2292.17 2129.55L2297.9 2125.08Z" fill="white"/>
<path d="M2163.9 1876.08L2156.64 1876.33L2154.15 1869.51L2152.15 1876.49L2144.89 1876.74L2150.91 1880.81L2148.91 1887.79L2154.63 1883.32L2160.66 1887.38L2158.17 1880.55L2163.9 1876.08Z" fill="white"/>
<path d="M1874.9 1825.08L1867.64 1825.33L1865.15 1818.51L1863.15 1825.49L1855.89 1825.74L1861.91 1829.81L1859.91 1836.79L1865.63 1832.32L1871.66 1836.38L1869.17 1829.55L1874.9 1825.08Z" fill="white"/>
<path d="M1905.9 1679.08L1898.64 1679.33L1896.15 1672.51L1894.15 1679.49L1886.89 1679.74L1892.91 1683.81L1890.91 1690.79L1896.63 1686.32L1902.66 1690.38L1900.17 1683.55L1905.9 1679.08Z" fill="white"/>
<path d="M2277.9 1938.08L2270.64 1938.33L2268.15 1931.51L2266.15 1938.49L2258.89 1938.74L2264.91 1942.81L2262.91 1949.79L2268.63 1945.32L2274.66 1949.38L2272.17 1942.55L2277.9 1938.08Z" fill="white"/>
<path d="M2282.9 1659.08L2275.64 1659.33L2273.15 1652.51L2271.15 1659.49L2263.89 1659.74L2269.91 1663.81L2267.91 1670.79L2273.63 1666.32L2279.66 1670.38L2277.17 1663.55L2282.9 1659.08Z" fill="white"/>
<path d="M2217.9 2040.08L2210.64 2040.33L2208.15 2033.51L2206.15 2040.49L2198.89 2040.74L2204.91 2044.81L2202.91 2051.79L2208.63 2047.32L2214.66 2051.38L2212.17 2044.55L2217.9 2040.08Z" fill="white"/>
<path d="M2234.9 1744.08L2227.64 1744.33L2225.15 1737.51L2223.15 1744.49L2215.89 1744.74L2221.91 1748.81L2219.91 1755.79L2225.63 1751.32L2231.66 1755.38L2229.17 1748.55L2234.9 1744.08Z" fill="white"/>
<path d="M1947.89 2257.87L1940.63 2258.12L1938.15 2251.29L1936.14 2258.28L1928.88 2258.53L1934.91 2262.59L1932.9 2269.58L1938.63 2265.1L1944.65 2269.17L1942.17 2262.34L1947.89 2257.87Z" fill="white"/>
<path d="M1906.7 2513.09L1899.44 2513.34L1896.96 2506.51L1894.95 2513.5L1887.69 2513.75L1893.72 2517.81L1891.71 2524.8L1897.44 2520.32L1903.46 2524.39L1900.98 2517.56L1906.7 2513.09Z" fill="white"/>
<path d="M1970.51 2625.35L1963.25 2625.61L1960.76 2618.78L1958.76 2625.76L1951.5 2626.02L1957.52 2630.08L1955.52 2637.06L1961.24 2632.59L1967.27 2636.65L1964.78 2629.83L1970.51 2625.35Z" fill="white"/>
<path d="M1970.51 2363.67L1963.25 2363.92L1960.76 2357.1L1958.76 2364.08L1951.5 2364.34L1957.52 2368.4L1955.52 2375.38L1961.24 2370.91L1967.27 2374.97L1964.78 2368.14L1970.51 2363.67Z" fill="white"/>
<path d="M1812.9 1739.08L1805.64 1739.33L1803.15 1732.51L1801.15 1739.49L1793.89 1739.74L1799.91 1743.81L1797.91 1750.79L1803.63 1746.32L1809.66 1750.38L1807.17 1743.55L1812.9 1739.08Z" fill="white"/>
<path d="M2077.9 1928.08L2070.64 1928.33L2068.15 1921.51L2066.15 1928.49L2058.89 1928.74L2064.91 1932.81L2062.91 1939.79L2068.63 1935.32L2074.66 1939.38L2072.17 1932.55L2077.9 1928.08Z" fill="white"/>
<path d="M2062.9 1805.08L2055.64 1805.33L2053.15 1798.51L2051.15 1805.49L2043.89 1805.74L2049.91 1809.81L2047.91 1816.79L2053.63 1812.32L2059.66 1816.38L2057.17 1809.55L2062.9 1805.08Z" fill="white"/>
<path d="M2062.9 1665.08L2055.64 1665.33L2053.15 1658.51L2051.15 1665.49L2043.89 1665.74L2049.91 1669.81L2047.91 1676.79L2053.63 1672.32L2059.66 1676.38L2057.17 1669.55L2062.9 1665.08Z" fill="white"/>
<path d="M1933.9 1894.08L1926.64 1894.33L1924.15 1887.51L1922.15 1894.49L1914.89 1894.74L1920.91 1898.81L1918.91 1905.79L1924.63 1901.32L1930.66 1905.38L1928.17 1898.55L1933.9 1894.08Z" fill="white"/>
<path d="M2023.9 2585.08L2016.64 2585.33L2014.15 2578.51L2012.15 2585.49L2004.89 2585.74L2010.91 2589.81L2008.91 2596.79L2014.63 2592.32L2020.66 2596.38L2018.17 2589.55L2023.9 2585.08Z" fill="white"/>
<path d="M2075.9 2348.08L2068.64 2348.33L2066.15 2341.51L2064.15 2348.49L2056.89 2348.74L2062.91 2352.81L2060.91 2359.79L2066.63 2355.32L2072.66 2359.38L2070.17 2352.55L2075.9 2348.08Z" fill="white"/>
</g>
<path d="M525.5 2332.02C779.53 2170.03 1475.5 2037.05 1799.48 2044.42L1740.43 2265.75L1527.88 2271.38C1286.37 2212.48 727.988 2291.52 525.5 2332.02Z" fill="#FDE30F"/>
<path d="M525.5 2332.03C860.525 2339.39 1208.6 2390.93 1617.26 2611.83L1685.2 2394.62C1399.51 2288.59 786.893 2291.53 525.5 2332.03Z" fill="#FDE30F"/>
<path d="M525.5 2332.02C1004.11 2199.48 1418.53 2245.61 1541.25 2271.38L1696.25 2398.29C1428.23 2304.04 797.938 2302.56 525.5 2332.02Z" fill="#FAC20D"/>
<path d="M1799.33 2040.77L1799.81 2040.92C1799.81 2040.92 1799.81 2040.93 1799.81 2040.93L1799.81 2040.92L1799.33 2040.77ZM1799.33 2040.77L1798.86 2040.92C1798.86 2040.92 1798.86 2040.93 1798.86 2040.93L1798.86 2040.92L1799.33 2040.77ZM1913.14 2396.75L1914.57 2396.29L1913.14 2396.75L1982.59 2612.97L1800.81 2479.37C1799.93 2478.72 1798.73 2478.72 1797.85 2479.37L1616.07 2612.97L1685.52 2396.75C1685.85 2395.73 1685.49 2394.61 1684.62 2393.97L1502.78 2260.32H1727.52C1728.6 2260.32 1729.57 2259.62 1729.9 2258.59L1799.33 2042.41L1868.77 2258.59C1869.1 2259.62 1870.06 2260.32 1871.15 2260.32H2095.88L1914.04 2393.97C1913.18 2394.61 1912.81 2395.73 1913.14 2396.75Z" fill="#FDE30F" stroke="#FAC20D" stroke-width="3"/>
<path d="M2528.5 2161.5C2507.79 2161.5 2491 2178.29 2491 2199C2491 2219.71 2507.79 2236.5 2528.5 2236.5L2528.5 2161.5ZM3153.02 2225.52C3167.66 2210.87 3167.66 2187.13 3153.02 2172.48L2914.37 1933.83C2899.72 1919.19 2875.98 1919.19 2861.33 1933.83C2846.69 1948.48 2846.69 1972.22 2861.33 1986.87L3073.47 2199L2861.33 2411.13C2846.69 2425.78 2846.69 2449.52 2861.33 2464.17C2875.98 2478.81 2899.72 2478.81 2914.37 2464.17L3153.02 2225.52ZM2528.5 2236.5L3126.5 2236.5L3126.5 2161.5L2528.5 2161.5L2528.5 2236.5Z" fill="white"/>
</g>
<defs>
<filter id="filter0_d_524_1043" x="0" y="0" width="3903" height="3703" filterUnits="userSpaceOnUse" color-interpolation-filters="sRGB">
<feFlood flood-opacity="0" result="BackgroundImageFix"/>
<feColorMatrix in="SourceAlpha" type="matrix" values="0 0 0 0 0 0 0 0 0 0 0 0 0 0 0 0 0 0 127 0" result="hardAlpha"/>
<feOffset/>
<feGaussianBlur stdDeviation="5"/>
<feComposite in2="hardAlpha" operator="out"/>
<feColorMatrix type="matrix" values="0 0 0 0 0 0 0 0 0 0 0 0 0 0 0 0 0 0 0.1 0"/>
<feBlend mode="normal" in2="BackgroundImageFix" result="effect1_dropShadow_524_1043"/>
<feBlend mode="normal" in="SourceGraphic" in2="effect1_dropShadow_524_1043" result="shape"/>
</filter>
<filter id="filter1_df_524_1043" x="1529.9" y="2606.5" width="691.604" height="248" filterUnits="userSpaceOnUse" color-interpolation-filters="sRGB">
<feFlood flood-opacity="0" result="BackgroundImageFix"/>
<feColorMatrix in="SourceAlpha" type="matrix" values="0 0 0 0 0 0 0 0 0 0 0 0 0 0 0 0 0 0 127 0" result="hardAlpha"/>
<feOffset/>
<feGaussianBlur stdDeviation="5"/>
<feComposite in2="hardAlpha" operator="out"/>
<feColorMatrix type="matrix" values="0 0 0 0 0 0 0 0 0 0 0 0 0 0 0 0 0 0 0.25 0"/>
<feBlend mode="normal" in2="BackgroundImageFix" result="effect1_dropShadow_524_1043"/>
<feBlend mode="normal" in="SourceGraphic" in2="effect1_dropShadow_524_1043" result="shape"/>
<feGaussianBlur stdDeviation="2.5" result="effect2_foregroundBlur_524_1043"/>
</filter>
<filter id="filter2_df_524_1043" x="1529.93" y="2606.5" width="808.567" height="248" filterUnits="userSpaceOnUse" color-interpolation-filters="sRGB">
<feFlood flood-opacity="0" result="BackgroundImageFix"/>
<feColorMatrix in="SourceAlpha" type="matrix" values="0 0 0 0 0 0 0 0 0 0 0 0 0 0 0 0 0 0 127 0" result="hardAlpha"/>
<feOffset/>
<feGaussianBlur stdDeviation="5"/>
<feComposite in2="hardAlpha" operator="out"/>
<feColorMatrix type="matrix" values="0 0 0 0 0 0 0 0 0 0 0 0 0 0 0 0 0 0 0.25 0"/>
<feBlend mode="normal" in2="BackgroundImageFix" result="effect1_dropShadow_524_1043"/>
<feBlend mode="normal" in="SourceGraphic" in2="effect1_dropShadow_524_1043" result="shape"/>
<feGaussianBlur stdDeviation="2.5" result="effect2_foregroundBlur_524_1043"/>
</filter>
<linearGradient id="paint0_linear_524_1043" x1="2003" y1="1597.5" x2="2003" y2="2622.5" gradientUnits="userSpaceOnUse">
<stop stop-color="#34569A"/>
<stop offset="1" stop-color="#1D3D63"/>
</linearGradient>
<clipPath id="clip0_524_1043">
<rect width="1008" height="635" fill="white" transform="translate(1685.5 2616.5) rotate(-90)"/>
</clipPath>
</defs>
</svg>
